<svg clip-rule="evenodd" fill-rule="evenodd" stroke-linejoin="round" stroke-miterlimit="2" viewBox="0 0 64 64" xmlns="http://www.w3.org/2000/svg"><path d="m-.0003 0h64v64h-64z" fill="none"/><g fill-rule="nonzero"><path d="m4 28h2v2c0 1.104.896 2 2 2h20c1.104 0 2-.896 2-2v-24c0-1.104-.896-2-2-2h-2v-2c0-1.104-.896-2-2-2h-20c-1.104 0-2 .896-2 2v24c0 1.104.896 2 2 2zm20.5-1.5h-21v-25h21zm4-21v25h-21v-2.5h16.5c1.104 0 2-.896 2-2v-20.5z" fill="#676e78" transform="matrix(2 0 0 2 1.8027 0)"/><path d="m7 18h14c.552 0 1-.448 1-1s-.448-1-1-1h-14c-.552 0-1 .448-1 1s.448 1 1 1z" fill="#c44d58" transform="matrix(0 1.5 -1.5 0 55.3027 7.0001)"/><path d="m7 18h14c.552 0 1-.448 1-1s-.448-1-1-1h-14c-.552 0-1 .448-1 1s.448 1 1 1z" fill="#c44d58" transform="matrix(1.5 0 0 1.5 8.8027 2.5001)"/></g></svg>